<?xml version="1.0" encoding="iso-8859-1"?>
<!-- Generator: Adobe Illustrator 19.0.0, SVG Export Plug-In . SVG Version: 6.00 Build 0)  -->
<svg version="1.1" id="Capa_1" xmlns="http://www.w3.org/2000/svg" xmlns:xlink="http://www.w3.org/1999/xlink" x="0px" y="0px"
	 viewBox="0 0 469.333 469.333" style="enable-background:new 0 0 469.333 469.333;" xml:space="preserve">
<g>
	<g>
		<path d="M351.997,0h-256c-5.888,0-10.667,4.779-10.667,10.667s4.779,10.667,10.667,10.667h113.195L107.219,327.296
			c-1.856,5.589,1.152,11.627,6.741,13.483c1.131,0.384,2.261,0.555,3.371,0.555c4.459,0,8.619-2.816,10.112-7.296L231.677,21.333
			h120.32c5.888,0,10.667-4.779,10.667-10.667S357.885,0,351.997,0z"/>
	</g>
</g>
<g>
	<g>
		<path d="M287.997,384h-256c-5.888,0-10.667,4.779-10.667,10.667c0,5.888,4.779,10.667,10.667,10.667h256
			c5.888,0,10.667-4.779,10.667-10.667C298.664,388.779,293.885,384,287.997,384z"/>
	</g>
</g>
<g>
	<g>
		<path d="M444.883,451.136l-56.469-56.469l56.448-56.448c4.16-4.16,4.16-10.923,0-15.083c-4.16-4.16-10.923-4.16-15.083,0
			l-56.448,56.448l-56.448-56.448c-4.16-4.16-10.923-4.16-15.083,0c-4.16,4.16-4.16,10.923,0,15.083l56.448,56.448L301.8,451.115
			c-4.16,4.16-4.16,10.923,0,15.083c2.069,2.091,4.8,3.136,7.531,3.136c2.731,0,5.461-1.045,7.552-3.115l56.448-56.448
			l56.448,56.448c2.091,2.069,4.821,3.115,7.552,3.115s5.461-1.045,7.552-3.115C449.043,462.059,449.043,455.296,444.883,451.136z"
			/>
	</g>
</g>
<g>
</g>
<g>
</g>
<g>
</g>
<g>
</g>
<g>
</g>
<g>
</g>
<g>
</g>
<g>
</g>
<g>
</g>
<g>
</g>
<g>
</g>
<g>
</g>
<g>
</g>
<g>
</g>
<g>
</g>
</svg>
